Coordinates
version=1
nRows=9
nColumns=60
inDegrees=yes

Units are S.I. units (second, meters, Newtons, ...)
If the header above contains a line with 'inDegrees', this indicates whether rotational values are in degrees (yes) or radians (no).

endheader
time	pelvis_tilt	pelvis_list	pelvis_rotation	pelvis_tx	pelvis_ty	pelvis_tz	hip_flexion_r	hip_adduction_r	hip_rotation_r	knee_angle_r_beta	knee_angle_r	ankle_angle_r	subtalar_angle_r	mtp_angle_r	hip_flexion_l	hip_adduction_l	hip_rotation_l	knee_angle_l_beta	knee_angle_l	ankle_angle_l	subtalar_angle_l	mtp_angle_l	L5_S1_Flex_Ext	L5_S1_Lat_Bending	L5_S1_axial_rotation	L4_L5_Flex_Ext	L4_L5_Lat_Bending	L4_L5_axial_rotation	L3_L4_Flex_Ext	L3_L4_Lat_Bending	L3_L4_axial_rotation	L2_L3_Flex_Ext	L2_L3_Lat_Bending	L2_L3_axial_rotation	L1_L2_Flex_Ext	L1_L2_Lat_Bending	L1_L2_axial_rotation	L1_T12_Flex_Ext	L1_T12_Lat_Bending	L1_T12_axial_rotation	Abs_r3	Abs_r2	Abs_r1	Abs_t1	Abs_t2	arm_flex_r	arm_add_r	arm_rot_r	elbow_flex_r	pro_sup_r	wrist_flex_r	wrist_dev_r	arm_flex_l	arm_add_l	arm_rot_l	elbow_flex_l	pro_sup_l	wrist_flex_l	wrist_dev_l
    105.41000000	     -0.27835716	     -2.59919659	     92.84875343	      0.40333891	      0.89998657	      0.39795784	     27.95525938	     -6.08791363	      1.05888955	      0.48658916	    -27.87950539	      5.44602836	      0.00000000	      0.00000000	     27.74700692	     -4.55771981	      0.70771765	      0.43722831	    -25.05133666	      4.52803578	      0.00000000	      0.00000000	    -10.64920605	      0.23888220	      0.08019881	    -19.77664055	      0.31771332	      0.08521124	    -17.49558062	      0.58081818	      0.08521124	    -12.17097759	      0.58081818	      0.07017396	     -9.88885274	      0.48712858	      0.06516153	     -6.08495634	      0.37002853	      0.06014911	    -76.06621389	      2.70228321	      0.44604173	      0.00000000	      0.00000000	     63.87596803	    -23.83883249	     22.45222508	     49.93422031	     65.59002785	     14.06401910	      1.45365508	     68.40892990	    -19.90791001	     33.60986771	     45.56683027	     57.65760186	     12.89856543	      0.14438444
    105.42000000	     -0.26793215	     -3.07869088	     92.82546346	      0.40351672	      0.89818041	      0.39942791	     28.83664761	     -6.08187567	      1.07782210	      0.49446430	    -28.33071749	      5.53818417	      0.00000000	      0.00000000	     28.67059536	     -4.57133785	      0.63899358	      0.44673096	    -25.59579862	      4.66586220	      0.00000000	      0.00000000	    -10.67877143	      0.23199472	      0.06576580	    -19.83154642	      0.30855298	      0.06987616	    -17.54415358	      0.56407197	      0.06987616	    -12.20476786	      0.56407197	      0.05754507	     -9.91630715	      0.47308364	      0.05343471	     -6.10184999	      0.35935982	      0.04932435	    -76.27739642	      2.62437069	      0.36576963	      0.00000000	      0.00000000	     65.39783765	    -23.55233172	     23.23137094	     48.83907690	     65.80195240	     14.13646351	      0.78755131	     69.58951154	    -19.74577558	     33.96278935	     44.68177007	     57.72650292	     13.06078963	     -0.25641232
    105.43000000	     -0.25696289	     -3.35339201	     92.79417469	      0.40369280	      0.89681331	      0.40066340	     29.45107165	     -6.06022957	      1.16636384	      0.50138636	    -28.72732205	      5.53142286	      0.00000000	      0.00000000	     29.31041619	     -4.59888296	      0.62883480	      0.45493764	    -26.06600648	      4.65673253	      0.00000000	      0.00000000	    -10.75775175	      0.22860806	      0.06832489	    -19.97822077	      0.30404872	      0.07259520	    -17.67391035	      0.55583764	      0.07259520	    -12.29503447	      0.55583764	      0.05978428	     -9.98964827	      0.46617756	      0.05551397	     -6.14697935	      0.35411389	      0.05124367	    -76.84154497	      2.58606010	      0.38000254	      0.00000000	      0.00000000	     66.60362594	    -23.43049664	     23.25811252	     48.62006218	     65.83489401	     14.15190506	      0.65601462	     70.68608177	    -19.62617276	     33.89699071	     44.41430579	     57.75341202	     13.12244061	     -0.32347122
    105.44000000	     -0.20058751	     -3.86086233	     92.75307959	      0.40388123	      0.89504202	      0.40193549	     30.31614497	     -6.00746244	      1.18390107	      0.50831709	    -29.12442366	      5.61727333	      0.00000000	      0.00000000	     30.24150310	     -4.67677971	      0.51556215	      0.46417116	    -26.59504859	      4.80757367	      0.00000000	      0.00000000	    -10.77516406	      0.22568033	      0.06990155	    -20.01055718	      0.30015484	      0.07427040	    -17.70251704	      0.54871916	      0.07427040	    -12.31493501	      0.54871916	      0.06116385	    -10.00581735	      0.46020733	      0.05679501	     -6.15692875	      0.34957884	      0.05242616	    -76.96591938	      2.55294106	      0.38877144	      0.00000000	      0.00000000	     68.02858920	    -23.17082791	     24.01057129	     47.53744285	     65.96560557	     14.31537767	      0.22008029	     71.88775824	    -19.39712029	     34.32770592	     43.41759734	     57.95052735	     13.58197333	     -0.48322679
    105.45000000	     -0.15054592	     -4.10233350	     92.72076838	      0.40407690	      0.89382275	      0.40297040	     30.85675458	     -5.93971409	      1.25343516	      0.51474289	    -29.49259495	      5.58338460	      0.00000000	      0.00000000	     30.81600093	     -4.74445128	      0.51211810	      0.47160479	    -27.02096385	      4.76635322	      0.00000000	      0.00000000	    -10.85459693	      0.22521017	      0.08083759	    -20.15807195	      0.29952953	      0.08588994	    -17.83301729	      0.54757601	      0.08588994	    -12.40571883	      0.54757601	      0.07073289	    -10.07957871	      0.45924858	      0.06568054	     -6.20231668	      0.34885055	      0.06062820	    -77.53330038	      2.54762249	      0.44959445	      0.00000000	      0.00000000	     69.20031527	    -23.04912188	     24.03361339	     47.31126270	     65.98101073	     14.35590650	      0.09358359	     72.97015245	    -19.27424864	     34.26221236	     43.18778584	     58.00617389	     13.71493348	     -0.54558252
    105.46000000	     -0.06403244	     -4.45910958	     92.70067627	      0.40422896	      0.89239319	      0.40400834	     31.55134740	     -5.86419583	      1.23044218	      0.52211872	    -29.91519886	      5.59350331	      0.00000000	      0.00000000	     31.57283885	     -4.85959248	      0.40476150	      0.48088075	    -27.55243744	      4.83471982	      0.00000000	      0.00000000	    -10.89929975	      0.22740817	      0.09221690	    -20.24108957	      0.30245286	      0.09798046	    -17.90645957	      0.55292022	      0.09798046	    -12.45680969	      0.55292022	      0.08068979	    -10.12108975	      0.46373074	      0.07492623	     -6.22785988	      0.35225525	      0.06916268	    -77.85260821	      2.57248669	      0.51288274	      0.00000000	      0.00000000	     70.45919170	    -22.84823897	     24.37935824	     46.58310305	     66.02305670	     14.44454437	     -0.04495749	     74.10098375	    -19.04673002	     34.41104486	     42.50924545	     58.12384054	     13.94219459	     -0.59987230
    105.47000000	      0.02125002	     -4.80599110	     92.71787129	      0.40425862	      0.89110533	      0.40502778	     32.11647430	     -5.79871560	      1.24576545	      0.52548745	    -30.10821310	      5.61291308	      0.00000000	      0.00000000	     32.18697562	     -4.90933096	      0.50067885	      0.48553389	    -27.81904294	      4.93345294	      0.00000000	      0.00000000	    -10.93866701	      0.23148273	      0.09194759	    -20.31419850	      0.30787203	      0.09769432	    -17.97113603	      0.56282711	      0.09769432	    -12.50180252	      0.56282711	      0.08045414	    -10.15764618	      0.47203958	      0.07470742	     -6.25035433	      0.35856675	      0.06896069	    -78.13380456	      2.61857893	      0.51138492	      0.00000000	      0.00000000	     71.91618194	    -22.65722955	     25.31008624	     45.45055971	     65.98729498	     14.99167392	     -0.95640078	     75.29850726	    -18.86668171	     34.76826665	     41.52491922	     58.51992543	     14.96149282	     -1.14599848
    105.48000000	      0.07108534	     -5.06641735	     92.73842657	      0.40433430	      0.88992690	      0.40589465	     32.67024650	     -5.77159599	      1.22935912	      0.53238569	    -30.50345338	      5.60133495	      0.00000000	      0.00000000	     32.75725214	     -4.95700706	      0.47125221	      0.49234781	    -28.20945155	      4.92533090	      0.00000000	      0.00000000	    -11.00427781	      0.23375685	      0.10086834	    -20.43604432	      0.31089661	      0.10717261	    -18.07892801	      0.56835640	      0.10717261	    -12.57678911	      0.56835640	      0.08825980	    -10.21857237	      0.47667697	      0.08195553	     -6.28784434	      0.36208936	      0.07565125	    -78.60245596	      2.64430423	      0.56099944	      0.00000000	      0.00000000	     72.96590335	    -22.54022900	     25.24573879	     45.17820179	     65.95943112	     15.04318169	     -1.07297861	     76.32980914	    -18.73969312	     34.63010517	     41.28175195	     58.54222120	     15.02110666	     -1.23840455
    105.49000000	      0.12076320	     -5.44147576	     92.79307636	      0.40431680	      0.88855909	      0.40680204	     33.30962430	     -5.77787609	      1.14417442	      0.53785046	    -30.81656163	      5.67582174	      0.00000000	      0.00000000	     33.42487921	     -4.97263277	      0.47623513	      0.49800613	    -28.53364931	      5.01623196	      0.00000000	      0.00000000	    -11.03271433	      0.23758147	      0.09092262	    -20.48885377	      0.31598335	      0.09660528	    -18.12564637	      0.57765558	      0.09660528	    -12.60928920	      0.57765558	      0.07955729	    -10.24497852	      0.48447613	      0.07387463	     -6.30409297	      0.36801369	      0.06819196	    -78.80557516	      2.68756906	      0.50568432	      0.00000000	      0.00000000	     74.28450821	    -22.29922896	     26.01309861	     43.98077127	     65.58818101	     16.21734814	     -2.90439945	     77.42300835	    -18.58339832	     34.93128727	     40.37258119	     58.73315216	     15.69216624	     -2.67647785
